#!OML:ASF F:\VICON\USERDATA\INSTALL\rory3\rory3.ASF
:FULLY-SPECIFIED
:DEGREES
64
root -0.1802036108597767 17.452608506027147 36.101813546122266 0.3866300534052347 5.171961535095335 -2.650431073558808
lfemur -23.74145850767107 -0.760836691329886 -24.161061464884895
ltibia 37.65865238458493
lfoot -10.827710552122854 -8.597560105975637
ltoes 0.8907528134442568
rfemur -3.552101449089978 -1.5382490287600743 26.717477087234375
rtibia 92.62673416240091
rfoot 15.672061885465371 -11.000850926959227
rtoes 13.40192649648553
lowerback 15.27455462344907 2.3043560446188995 2.0223923509394433
upperback -0.6372655357529922 3.521153952382351 0.4279744474409517
thorax -9.351098777439784 1.574034263470565 -1.7705369110309728
lowerneck -19.640265489307364 -4.898264360103157 -2.365446582404521
upperneck 14.39611532863306 -6.7762990421951335 3.8937901182580377
head 7.896666909068791 -2.9460727672981326 0.9073039642572593
lclavicle -1.945113493929153e-15 1.626728172815794e-15
lhumerus -62.54128883482989 -8.370766636174938 98.64733676497585
lradius 111.76178517844491
lwrist 31.125940536809342
lhand -25.420721627127246 2.906777559131366
lfingers 7.12502
lthumb 1.1051817632996257 32.89335229046764
rclavicle -1.945113493929153e-15 1.626728172815794e-15
rhumerus -44.19419922295375 10.909629062932272 -98.83050594470424
rradius 104.67264597169574
rwrist -8.41670555225986
rhand -17.160418690374147 38.37256092847114
rfingers 7.12502
rthumb 9.080274097384244 9.179586660955083
65
root -0.21466479471370034 17.204225236701536 37.42438706737709 0.2839499684535993 5.199143052333757 -1.4821637883151213
lfemur -21.33803391145354 -1.2530446014274323 -25.477463407306395
ltibia 42.14313934092823
lfoot -15.46177171220313 -5.491847195451296
ltoes 2.793521670172174
rfemur -8.883023588983754 -3.3014474732781296 24.137035149411645
rtibia 101.35002567933172
rfoot 13.991017873033535 -10.537372108684984
rtoes 14.34426717600936
lowerback 15.850838559686746 2.218414288634109 0.6384442280083807
upperback -0.3384265929164326 3.132580677207196 0.05441080193390846
thorax -9.500379341855291 1.4435419856915597 -1.0494510509330737
lowerneck -20.02821026727995 -4.817480416189593 -2.2497049683122325
upperneck 14.2158323849298 -6.709027583163835 4.0823726998155765
head 7.889829137045612 -2.8836354841119376 0.9639913087260317
lclavicle -1.4886607744601597e-15 1.9578514481870483e-15
lhumerus -57.938073300328945 -10.621463305119875 99.4063340937843
lradius 110.75822449450388
lwrist 31.86447481343292
lhand -25.8221287033001 3.624507803351448
lfingers 7.12502
lthumb 0.7175078558005906 33.612142097174846
rclavicle -1.4886607744601597e-15 1.9578514481870483e-15
rhumerus -45.09505510461098 9.37211096698158 -99.69670379497744
rradius 102.89054735927738
rwrist -7.94952577876008
rhand -17.187425201392706 38.2371170013171
rfingers 7.12502
rthumb 9.054167332453844 9.01982009610429
66
root -0.24249582129053954 16.98290163967207 38.25153855767519 0.42478564745992875 4.947315431884333 -0.40331750058556937
lfemur -18.890278993474126 -1.8658064133803647 -26.769091843215627
ltibia 45.378596664201616
lfoot -19.785816366120226 -2.0886921596430206
ltoes 2.678480912421927
rfemur -15.39026831577258 -4.788205838577955 21.757332630386188
rtibia 108.41618079166255
rfoot 12.085409189089063 -9.592752423316373
rtoes 15.033114196042565
lowerback 16.315189666022825 2.126263123729185 -0.7229878905551985
upperback -0.11244433451612612 2.7283578705994067 -0.320085082645833
thorax -9.644744459973445 1.3064620348474465 -0.40998357532248375
lowerneck -20.51026634773396 -4.723547837334213 -2.1545333249954464
upperneck 14.021134292658962 -6.615755089416124 4.224483621439177
head 7.886122957265529 -2.811812208476201 1.0101832655312184
lclavicle -1.4378736374843005e-15 1.994720576372831e-15
lhumerus -53.05686717321346 -13.165631109880772 99.95272755767303
lradius 109.3769231498447
lwrist 32.4583938646417
lhand -26.117629573182302 4.053377441717953
lfingers 7.12502
lthumb 0.4321232610379464 34.041393399577835
rclavicle -1.4378736374843005e-15 1.994720576372831e-15
rhumerus -46.31384452682725 7.737771444029397 -100.47848899766515
rradius 101.39986698729601
rwrist -7.808064883884661
rhand -17.152865293660195 38.12088257274554
rfingers 7.12502
rthumb 9.087479862689733 8.894939255665555
67
root -0.26401205867709165 16.81777793593282 38.77082101322631 0.7792230506236155 4.510541377446012 0.3854895365383997
lfemur -16.090398624962766 -2.4398814979037264 -27.740474664438167
ltibia 47.24074673002811
lfoot -22.938450379851353 0.9060517401851707
ltoes 0.9676757784594852
rfemur -22.42825935582968 -5.9463699727807136 20.03575631418147
rtibia 113.20000185430135
rfoot 10.051092428911883 -8.461979246292223
rtoes 14.855471987715513
lowerback 16.62514317811632 1.9785012349099984 -1.8205547173839303
upperback 0.002806262496037659 2.297551761684512 -0.5717215827723465
thorax -9.775221978831768 1.1503909320035073 0.16095808274606327
lowerneck -20.990156323365927 -4.586058534539298 -2.0935971782766853
upperneck 13.841032765429597 -6.444370530458944 4.293473117444837
head 7.882303925303777 -2.712098056243361 1.0444974605808048
lclavicle -1.5482850647947986e-15 1.9146414599829263e-15
lhumerus -48.19023908272806 -15.517318686132832 100.17706953351029
lradius 107.99017290399743
lwrist 32.66914479991208
lhand -26.176751822549104 4.015723637642383
lfingers 7.12502
lthumb 0.37503434842276695 34.00544344523558
rclavicle -1.5482850647947986e-15 1.9146414599829263e-15
rhumerus -47.83428007602884 6.305586870194463 -101.06443537523955
rradius 100.48807911446161
rwrist -8.112926686737477
rhand -17.012872912069955 38.075430080529834
rfingers 7.12502
rthumb 9.222570313263953 8.843699403903429
68
root -0.28432627516233433 16.727360151197082 38.955034470249096 1.2439157551217814 4.015397288304484 0.7337446164321197
lfemur -13.242707234596777 -2.888166730144153 -28.280899160404797
ltibia 47.577842198987284
lfoot -24.679482372300427 2.9231780154648286
ltoes -1.9660180847688977
rfemur -29.438235865025362 -6.818514353653905 19.177120743821234
rtibia 115.2635444446363
rfoot 7.932772671799595 -7.516631210360845
rtoes 13.608417549196794
lowerback 16.753157754204143 1.7088317239476711 -2.534552073526134
upperback -0.01774817891738656 1.7877694092185186 -0.6384250481332727
thorax -9.895535136839236 0.9472559715018259 0.6412584609244614
lowerneck -21.389510070173404 -4.388173675494845 -2.069634105870476
upperneck 13.704684900464404 -6.171054583655087 4.258228258893034
head 7.874732087771859 -2.576035957392951 1.0598179309342597
lclavicle -1.973794098167638e-15 1.6059860789653048e-15
lhumerus -43.90550250598696 -17.31459342863245 100.0334004845504
lradius 107.08473530633668
lwrist 32.5598416239654
lhand -26.01774400985218 3.4763363148656934
lfingers 7.12502
lthumb 0.5286115826659448 33.470060202470435
rclavicle -1.973794098167638e-15 1.6059860789653048e-15
rhumerus -49.70923453337639 5.3162240578951465 -101.46725449802676
rradius 100.27765318973177
rwrist -8.911452850216612
rhand -16.76429904207638 38.106351834014866
rfingers 7.12502
rthumb 9.462498902522979 8.861288130488113
69
root -0.30109716062021913 16.71997058184341 39.338411964296064 1.7485650390689975 3.6224512731729193 0.7404306780184284
lfemur -10.002344974022074 -3.135833493629068 -28.370909480029646
ltibia 46.9088340284521
lfoot -24.89786310001677 3.852730833693422
ltoes -5.785029326584136
rfemur -35.73478515968969 -7.416482164166226 19.125230262022857
rtibia 115.30073083914824
rfoot 6.051974219011841 -6.8547587489775585
rtoes 11.80424447126446
lowerback 16.739468407498382 1.3134081905211814 -2.8753122181101647
upperback -0.13800014384825876 1.196370174352477 -0.5133585082199588
thorax -9.98900964933109 0.6957115921289476 1.1300313368779336
lowerneck -21.673005874758136 -4.107433863296726 -2.056348421104588
upperneck 13.649450845416702 -5.771195203458436 4.1352142121536755
head 7.870953644630244 -2.3896300403325936 1.0599853789124705
lclavicle -2.3041979822209166e-15 1.3663023926191339e-15
lhumerus -40.151573583242325 -18.302780592405057 99.58360145708738
lradius 107.11397939908723
lwrist 32.55564479601868
lhand -25.776367760238173 2.662243559161179
lfingers 7.12502
lthumb 0.7617345551986103 32.66196737949331
rclavicle -2.3041979822209166e-15 1.3663023926191339e-15
rhumerus -51.774965898228224 4.888924088730612 -101.68298040874913
rradius 100.7432914319141
rwrist -10.045286563263064
rhand -16.381063294045976 38.202375146231795
rfingers 7.12502
rthumb 9.832444617072664 8.941497709536826
